# xmcd
#
# Track frame offsets: 
#        150
#        21801
#        38707
#        59322
#        83300
#        99767
#        120202
#        134723
#        153842
#        171998
#
# Disc length: 2556 seconds
#
# Revision: 0
# Processed by: cddbd v1.5.2PL0 Copyright (c) Steve Scherf et al.
# Submitted via: ExactAudioCopy v0.99pb4
#
DISCID=6b09fa0a
DTITLE=Garth Webber - i
DYEAR=2005
DGENRE=Instrumental
TTITLE0=Melting Pot
TTITLE1=For Bonnie
TTITLE2=Walk On
TTITLE3=Out Of Body
TTITLE4=Layers
TTITLE5=Easy
TTITLE6=Wrapper
TTITLE7=Lunafunk
TTITLE8=Carolyn
TTITLE9=Slideways
EXTD=
EXTT0=
EXTT1=
EXTT2=
EXTT3=
EXTT4=
EXTT5=
EXTT6=
EXTT7=
EXTT8=
EXTT9=
PLAYORDER=
